<?xml version="1.0" standalone="no"?>
<!DOCTYPE svg PUBLIC "-//W3C//DTD SVG 20010904//EN"
 "http://www.w3.org/TR/2001/REC-SVG-20010904/DTD/svg10.dtd">
<svg version="1.0" xmlns="http://www.w3.org/2000/svg"
 width="1024.000000pt" height="1024.000000pt" viewBox="0 0 1024.000000 1024.000000"
 preserveAspectRatio="xMidYMid meet">

<g transform="translate(0.000000,1024.000000) scale(0.100000,-0.100000)"
fill="#000000" stroke="none">
<path d="M7439 8476 c-2 -3 -47 -10 -99 -16 -52 -7 -108 -18 -125 -25 -16 -7
-54 -16 -84 -19 -30 -4 -62 -11 -71 -16 -10 -5 -42 -14 -71 -19 -71 -13 -189
-45 -214 -58 -50 -26 -113 -52 -142 -58 -18 -4 -33 -10 -33 -15 0 -4 -20 -11
-44 -14 -24 -4 -50 -14 -56 -21 -7 -8 -23 -15 -35 -15 -12 0 -34 -9 -48 -20
-14 -11 -34 -20 -45 -20 -11 0 -25 -6 -31 -14 -7 -8 -24 -17 -38 -21 -25 -6
-122 -74 -123 -86 0 -8 -146 -231 -163 -250 -8 -10 -18 -31 -22 -48 -4 -17
-11 -31 -16 -31 -5 0 -15 -15 -24 -32 -8 -18 -19 -41 -25 -50 -25 -44 -31 -55
-40 -78 -6 -14 -17 -37 -25 -52 -8 -14 -15 -33 -15 -42 0 -9 -9 -24 -20 -33
-11 -10 -20 -23 -20 -29 0 -6 -6 -17 -14 -23 -30 -25 -30 73 0 152 8 20 14 50
14 65 0 15 7 40 15 56 8 16 18 47 21 70 4 22 13 52 20 66 14 27 36 102 30 107
-5 5 -301 -147 -304 -157 -2 -5 -32 -23 -68 -40 -35 -17 -66 -35 -69 -40 -3
-4 -16 -11 -30 -14 -52 -13 -159 -129 -179 -194 -4 -11 -13 -23 -21 -26 -8 -3
-15 -14 -15 -23 0 -10 -6 -28 -14 -39 -8 -11 -18 -38 -22 -60 -4 -21 -13 -48
-20 -59 -8 -11 -14 -33 -14 -50 0 -16 -7 -43 -16 -60 -9 -16 -19 -50 -22 -74
-8 -52 -27 -64 -35 -22 -9 45 4 159 19 172 8 6 14 26 14 43 0 17 9 57 20 89
37 104 20 144 -41 100 -33 -24 -59 -41 -89 -56 -13 -6 -39 -25 -57 -42 -48
-45 -57 -51 -89 -68 -16 -8 -45 -29 -64 -47 -19 -17 -59 -52 -89 -78 -72 -63
-327 -316 -374 -370 -20 -24 -37 -48 -37 -53 0 -5 -7 -9 -15 -9 -9 0 -19 -8
-22 -17 -4 -10 -10 -20 -13 -23 -4 -3 -34 -39 -66 -80 -89 -112 -156 -278
-196 -479 -18 -92 -20 -128 -14 -291 3 -102 9 -204 12 -227 6 -45 0 -52 -29
-30 -38 27 -73 226 -76 430 -1 26 -6 47 -11 47 -6 0 -37 -28 -70 -62 -32 -35
-101 -107 -152 -160 -51 -53 -109 -116 -128 -138 -19 -23 -43 -50 -52 -61 -10
-10 -18 -21 -18 -24 0 -6 -68 -97 -95 -127 -8 -10 -15 -22 -15 -27 0 -6 -8
-16 -18 -23 -10 -7 -25 -25 -33 -40 -8 -14 -29 -55 -47 -90 -19 -34 -38 -67
-43 -72 -5 -6 -9 -16 -9 -24 0 -8 -9 -33 -19 -56 -17 -37 -47 -131 -80 -256
-7 -25 -17 -74 -22 -110 -5 -36 -14 -76 -20 -90 -6 -13 -14 -56 -19 -95 -5
-38 -16 -101 -24 -140 -9 -38 -16 -95 -16 -125 0 -38 -7 -66 -21 -89 -31 -51
-43 -28 -47 87 -2 53 -8 101 -12 106 -12 12 -30 -36 -30 -80 0 -19 -7 -80 -17
-135 -14 -85 -14 -107 -3 -154 16 -66 7 -80 -24 -40 -19 23 -26 48 -31 105 -3
41 -10 89 -15 105 -4 17 -11 47 -15 67 -9 56 -32 39 -41 -30 -4 -32 -11 -68
-16 -82 -10 -26 -32 -184 -49 -360 -15 -146 -6 -313 20 -373 18 -41 24 -47 50
-47 32 0 71 39 71 70 0 10 6 20 14 23 8 3 17 19 21 36 4 17 10 31 15 31 4 0
13 14 19 30 5 17 14 30 20 30 5 0 12 14 16 31 4 17 13 33 20 36 8 2 17 18 20
34 4 16 10 29 15 29 4 0 13 15 21 33 7 17 19 36 26 40 7 4 13 17 13 27 0 10 6
23 13 27 6 4 25 33 41 63 17 30 34 60 38 65 8 10 21 29 102 158 20 31 36 61
36 65 0 5 15 26 33 48 18 21 44 57 59 79 96 148 124 192 130 207 4 10 12 18
17 18 5 0 13 10 17 22 8 27 44 80 62 91 6 4 12 15 12 23 0 8 6 17 14 20 8 3
19 19 25 35 5 16 15 29 20 29 6 0 11 8 11 17 0 9 18 38 40 64 22 26 40 52 40
58 0 6 4 11 9 11 5 0 21 21 37 48 27 46 33 55 74 100 11 12 20 26 20 30 0 5
11 19 25 32 14 13 25 27 25 32 0 5 5 14 10 21 50 59 130 164 130 172 0 6 19
31 43 57 72 81 89 102 112 138 13 19 43 58 69 85 25 28 46 53 46 57 0 4 15 23
33 42 17 19 42 47 55 63 61 75 136 157 234 258 59 60 120 124 135 140 16 17
51 48 78 70 28 22 59 49 70 60 34 34 112 95 121 95 5 0 17 8 25 18 9 9 29 26
45 37 15 11 36 28 46 38 10 9 22 17 28 17 5 0 13 6 17 13 4 6 28 26 53 42 25
16 49 36 53 42 4 7 14 13 22 13 8 0 18 6 22 13 9 13 68 57 78 57 4 0 26 16 49
35 51 42 158 115 169 115 7 0 18 9 69 55 24 21 43 34 96 61 17 10 32 21 32 26
0 4 4 8 10 8 9 0 129 77 160 103 19 16 48 33 88 52 17 8 32 20 32 25 0 6 6 10
13 10 8 0 24 9 37 20 13 11 30 20 37 20 8 0 26 9 40 20 14 11 32 20 39 20 8 0
14 5 14 11 0 5 14 15 30 20 17 6 30 15 30 19 0 5 16 14 35 21 19 7 35 16 35
20 0 4 14 10 31 14 17 4 33 13 36 21 3 8 13 14 22 14 9 0 28 8 41 17 33 23 62
39 167 92 49 23 95 47 103 52 8 5 26 15 40 21 14 7 28 18 33 25 4 6 20 14 36
18 16 3 35 13 42 21 6 8 20 14 30 14 10 0 22 6 26 13 9 14 56 48 168 120 39
25 84 58 102 74 17 15 41 35 54 43 12 8 34 25 49 38 15 12 31 22 34 22 4 0 21
16 39 35 17 19 38 35 44 35 7 0 13 4 13 8 0 5 18 21 41 38 22 16 57 46 76 67
20 20 42 37 50 37 7 0 13 7 13 15 0 21 -24 19 -45 -5 -10 -11 -26 -20 -35 -20
-10 0 -23 -7 -30 -15 -7 -8 -18 -15 -25 -15 -6 0 -20 -9 -30 -20 -10 -11 -24
-20 -32 -20 -7 0 -16 -7 -19 -15 -4 -8 -15 -15 -26 -15 -17 0 -19 4 -13 33 4
17 13 35 20 40 8 4 16 20 20 36 3 16 13 32 21 35 19 7 18 26 -1 26 -8 0 -15
-7 -15 -15 0 -8 -7 -15 -15 -15 -9 0 -18 -7 -21 -15 -3 -8 -14 -17 -25 -20
-10 -4 -19 -13 -19 -21 0 -8 -6 -14 -14 -14 -7 0 -16 -9 -19 -20 -3 -11 -12
-20 -21 -20 -9 0 -16 -6 -16 -14 0 -8 -9 -18 -20 -21 -11 -3 -20 -13 -20 -21
0 -8 -9 -14 -21 -14 -19 0 -21 4 -15 31 3 16 13 37 21 45 8 9 18 26 21 39 3
13 12 26 20 29 8 3 14 12 14 19 0 8 6 20 14 26 8 7 17 23 20 37 4 14 11 31 17
37 29 36 60 92 57 106 -3 15 -38 28 -49 17z"/>
<path d="M7750 8290 c0 -5 7 -10 15 -10 8 0 15 5 15 10 0 6 -7 10 -15 10 -8 0
-15 -4 -15 -10z"/>
<path d="M7915 8178 c-11 -13 -47 -45 -79 -73 -32 -27 -69 -60 -81 -72 -12
-13 -25 -23 -28 -23 -3 0 -21 -15 -40 -32 -64 -60 -111 -100 -187 -157 -41
-31 -86 -68 -100 -82 -14 -14 -33 -28 -43 -32 -9 -3 -17 -10 -17 -15 0 -5 -13
-15 -29 -22 -16 -6 -32 -18 -35 -26 -3 -8 -10 -14 -15 -14 -5 0 -27 -16 -48
-35 -21 -19 -42 -35 -48 -35 -5 0 -27 -16 -48 -35 -21 -19 -41 -35 -45 -35 -4
0 -23 -15 -42 -33 -20 -17 -47 -38 -60 -45 -65 -34 -80 -44 -80 -51 0 -5 -33
-31 -72 -57 -40 -27 -77 -52 -83 -57 -5 -4 -33 -25 -61 -47 -29 -22 -56 -40
-61 -40 -5 0 -20 -11 -33 -25 -13 -14 -30 -25 -37 -25 -8 0 -16 -7 -19 -15 -4
-8 -10 -15 -15 -15 -6 0 -33 -17 -62 -38 -29 -20 -72 -48 -97 -61 -25 -13 -53
-32 -63 -43 -10 -10 -24 -18 -32 -18 -8 0 -15 -4 -15 -8 0 -5 -28 -24 -62 -42
-35 -18 -65 -35 -68 -39 -8 -10 -85 -61 -92 -61 -4 0 -21 -13 -39 -29 -18 -17
-45 -35 -61 -42 -15 -6 -28 -15 -28 -20 0 -5 -7 -9 -15 -9 -8 0 -19 -9 -25
-20 -6 -11 -15 -20 -20 -20 -11 0 -72 -41 -96 -64 -9 -10 -29 -25 -43 -34 -32
-20 -32 -21 -103 -77 -31 -25 -59 -45 -63 -45 -3 0 -23 -17 -44 -37 -21 -21
-55 -50 -77 -65 -21 -15 -73 -59 -114 -98 -41 -38 -78 -70 -82 -70 -4 0 -31
-25 -61 -55 -30 -30 -59 -55 -65 -55 -7 0 -12 -7 -12 -15 0 -9 -7 -18 -15 -21
-9 -4 -57 -46 -108 -96 -50 -49 -105 -102 -122 -117 -16 -16 -86 -88 -155
-161 -69 -73 -132 -140 -141 -149 -9 -9 -47 -52 -84 -96 -38 -44 -75 -84 -82
-88 -7 -4 -13 -12 -13 -17 0 -5 -16 -26 -35 -46 -19 -19 -35 -40 -35 -45 0 -5
-7 -9 -15 -9 -8 0 -15 -7 -15 -15 0 -7 -6 -18 -13 -22 -6 -4 -25 -26 -41 -48
-16 -22 -37 -47 -45 -57 -9 -9 -25 -28 -36 -42 -11 -15 -27 -34 -35 -44 -33
-36 -98 -120 -144 -184 -26 -38 -51 -68 -57 -68 -5 0 -9 -7 -9 -15 0 -8 -9
-20 -20 -27 -11 -7 -20 -18 -20 -24 0 -10 -41 -69 -114 -166 -20 -25 -36 -51
-36 -57 0 -6 -4 -11 -10 -11 -5 0 -16 -16 -24 -35 -8 -19 -20 -35 -25 -35 -6
0 -11 -7 -11 -15 0 -9 -7 -18 -15 -21 -8 -4 -15 -11 -15 -18 0 -6 -18 -37 -40
-69 -22 -31 -40 -60 -40 -63 0 -3 -15 -24 -33 -47 -18 -23 -39 -53 -45 -67 -7
-14 -23 -43 -37 -65 -13 -22 -27 -47 -31 -55 -4 -8 -13 -19 -21 -23 -7 -4 -13
-16 -13 -26 0 -10 -7 -24 -15 -31 -22 -19 -243 -400 -245 -422 0 -5 38 -8 84
-8 62 0 89 4 100 15 8 8 29 18 45 21 17 4 31 12 31 19 0 7 16 16 35 19 19 4
47 13 62 21 15 8 39 15 53 15 14 0 35 6 46 14 11 8 42 17 69 22 27 4 55 13 63
20 7 8 25 14 40 14 15 1 45 9 67 20 22 11 54 20 70 20 17 0 38 7 49 15 10 8
38 17 62 21 24 3 49 12 55 20 6 8 19 14 28 14 14 0 222 96 261 121 8 5 27 15
43 22 15 6 30 19 33 29 3 10 10 18 15 18 9 0 88 49 99 60 3 4 15 13 28 22 32
22 4 31 -34 11 -16 -8 -45 -20 -64 -27 -126 -47 -179 -65 -205 -71 -16 -3 -38
-14 -49 -23 -15 -15 -50 -18 -240 -21 -121 -1 -228 -7 -237 -12 -9 -4 -56 -13
-105 -19 -48 -6 -94 -16 -101 -22 -14 -12 -43 -4 -43 12 0 20 41 50 69 50 16
0 36 7 45 15 8 8 36 19 63 25 123 24 213 39 268 45 119 13 361 88 430 132 11
7 25 13 33 13 7 0 38 11 68 25 30 14 59 25 64 25 6 0 10 4 10 9 0 5 13 12 29
16 16 3 35 13 42 21 6 8 16 14 22 14 10 0 89 35 117 51 8 5 29 16 45 25 17 8
48 26 70 39 22 13 47 27 55 30 30 13 36 16 75 40 22 14 52 30 68 36 15 6 27
15 27 19 0 4 24 20 53 35 28 15 59 33 67 39 8 7 27 17 43 24 15 6 27 16 27 21
0 5 9 11 20 14 11 3 20 10 20 16 0 15 -42 14 -65 -3 -11 -7 -40 -17 -65 -21
-25 -4 -50 -12 -57 -17 -21 -17 -159 -23 -405 -18 -215 5 -262 9 -246 26 3 3
60 9 125 14 66 5 131 13 144 18 13 5 58 13 99 16 41 4 98 14 125 22 28 8 84
23 125 34 120 33 191 56 255 84 17 7 85 32 152 55 66 23 138 51 159 62 21 10
44 19 52 19 8 0 26 6 40 14 15 8 38 19 52 25 14 6 43 22 65 36 22 13 47 27 55
32 8 4 29 22 46 40 17 18 34 33 38 33 26 0 236 247 236 279 0 5 6 14 13 18 17
10 57 80 57 98 0 8 -4 16 -9 19 -5 3 -69 -1 -143 -10 -354 -41 -565 -40 -778
4 -103 21 -158 26 -318 29 -194 3 -253 12 -202 31 14 5 78 17 142 27 101 16
131 17 205 7 62 -8 127 -8 218 -2 220 16 504 59 529 79 7 6 32 13 56 16 25 4
71 15 103 26 31 10 65 19 75 19 10 0 27 7 38 15 10 8 29 15 42 15 13 0 44 8
70 18 69 28 112 43 157 55 22 5 44 16 48 24 4 7 15 13 24 13 15 0 35 8 153 65
57 27 78 38 108 55 9 6 31 17 49 25 17 8 33 18 35 23 1 4 27 23 56 42 28 18
52 37 52 42 0 4 6 8 14 8 16 0 136 114 136 131 0 8 -15 10 -52 5 -125 -16
-166 -18 -172 -8 -7 11 36 33 154 80 136 54 171 72 165 82 -9 15 -89 12 -111
-5 -25 -19 -158 -21 -152 -3 3 7 21 16 41 20 21 4 47 14 60 22 12 8 37 17 55
21 18 4 45 13 60 21 15 8 36 14 47 14 11 0 38 9 60 20 22 11 43 19 47 20 10 0
75 44 117 77 59 47 170 172 171 191 0 7 6 15 14 18 7 3 26 31 42 62 15 31 31
59 35 62 4 3 11 19 15 35 3 17 12 37 19 45 7 8 16 29 20 47 3 17 13 37 21 44
14 11 20 60 8 72 -4 3 -23 0 -43 -8 -117 -46 -497 -99 -630 -88 -65 5 -98 18
-70 27 42 13 164 37 234 45 44 6 97 17 117 25 21 9 52 16 70 16 18 0 46 7 62
15 16 8 46 18 67 21 21 4 44 13 50 20 6 8 17 14 23 14 6 0 28 9 49 20 20 11
43 20 51 20 7 0 19 6 25 14 7 8 26 18 42 21 17 4 33 13 36 21 3 8 11 14 18 14
7 0 25 15 39 33 15 17 30 37 35 43 50 62 35 126 -21 91 -13 -8 -42 -17 -64
-21 -23 -3 -54 -13 -70 -21 -16 -8 -45 -15 -65 -15 -20 0 -53 -7 -72 -15 -40
-17 -167 -21 -167 -5 0 5 19 13 41 16 23 4 49 15 58 25 8 11 27 19 41 19 14 0
43 9 65 19 22 11 58 26 80 34 89 33 175 72 175 78 0 4 12 10 28 14 15 3 37 14
50 25 20 16 22 27 22 104 0 76 -2 86 -18 86 -10 0 -22 -4 -27 -9 -6 -5 -26
-14 -45 -19 -19 -6 -66 -22 -105 -37 -38 -15 -86 -30 -105 -35 -19 -5 -45 -11
-56 -15 -18 -6 -21 -3 -17 17 3 16 23 33 66 57 77 42 166 100 189 124 10 9 23
17 28 17 6 0 16 5 23 10 7 6 24 19 40 31 40 30 38 88 -6 154 -38 58 -70 69
-102 33z"/>
<path d="M7420 7880 c0 -5 4 -10 9 -10 6 0 13 5 16 10 3 6 -1 10 -9 10 -9 0
-16 -4 -16 -10z"/>
<path d="M7354 7841 c3 -5 15 -7 26 -4 28 7 25 13 -6 13 -14 0 -23 -4 -20 -9z"/>
<path d="M7280 7800 c-30 -16 -69 -36 -87 -45 -18 -8 -36 -21 -40 -28 -4 -6
-34 -26 -66 -42 -32 -17 -70 -36 -85 -44 -15 -8 -30 -18 -33 -23 -7 -11 -39
-30 -86 -53 -18 -8 -33 -19 -33 -24 0 -5 -15 -12 -34 -15 -19 -4 -37 -13 -40
-21 -3 -8 -12 -15 -19 -15 -8 0 -22 -9 -32 -20 -10 -11 -22 -20 -27 -20 -6 0
-21 -9 -35 -20 -14 -11 -34 -20 -44 -20 -11 0 -19 -4 -19 -10 0 -5 -15 -16
-32 -25 -35 -15 -44 -21 -120 -72 -26 -18 -54 -33 -61 -33 -8 0 -24 -9 -37
-20 -13 -11 -29 -20 -37 -20 -7 0 -16 -6 -19 -14 -3 -8 -18 -19 -32 -25 -28
-12 -49 -24 -126 -78 -26 -18 -50 -33 -53 -33 -3 0 -26 -15 -52 -33 -25 -18
-67 -45 -93 -60 -26 -15 -51 -33 -55 -40 -4 -6 -15 -16 -24 -22 -10 -5 -52
-34 -94 -62 -42 -29 -80 -53 -85 -53 -4 0 -10 -7 -14 -15 -3 -8 -12 -15 -20
-15 -8 0 -19 -6 -23 -13 -4 -6 -28 -26 -53 -42 -24 -17 -52 -37 -61 -45 -8 -8
-26 -22 -39 -30 -12 -8 -34 -25 -48 -37 -14 -13 -29 -23 -33 -23 -5 0 -17 -8
-27 -17 -27 -27 -89 -77 -172 -141 -42 -31 -89 -70 -106 -87 -16 -16 -45 -42
-64 -56 -54 -40 -140 -125 -140 -138 0 -6 -5 -11 -12 -11 -12 0 -24 -10 -91
-79 -23 -24 -82 -85 -132 -136 -49 -50 -112 -119 -140 -151 -27 -32 -65 -74
-82 -92 -18 -18 -33 -35 -33 -37 0 -3 -8 -13 -17 -24 -10 -10 -26 -29 -36 -42
-16 -22 -61 -75 -112 -133 -11 -13 -27 -34 -35 -46 -8 -13 -22 -31 -30 -40 -9
-8 -29 -34 -45 -55 -16 -22 -36 -47 -45 -55 -9 -8 -47 -58 -85 -110 -69 -95
-113 -151 -140 -181 -8 -9 -15 -20 -15 -26 0 -6 -6 -16 -14 -22 -8 -7 -36 -44
-63 -84 -54 -82 -61 -91 -85 -118 -10 -10 -18 -23 -18 -27 0 -4 -7 -17 -15
-27 -8 -11 -25 -36 -38 -55 -13 -19 -40 -59 -60 -87 -20 -29 -37 -57 -37 -63
0 -6 -7 -13 -15 -16 -8 -4 -15 -11 -15 -17 0 -5 -11 -25 -25 -43 -14 -18 -25
-37 -25 -43 0 -6 -4 -11 -10 -11 -5 0 -17 -15 -25 -32 -9 -18 -21 -42 -28 -53
-35 -57 -52 -81 -62 -90 -7 -5 -42 -62 -79 -125 -37 -63 -80 -135 -96 -160
-17 -25 -33 -52 -37 -60 -4 -8 -21 -35 -38 -60 -16 -25 -43 -70 -58 -100 -16
-30 -39 -73 -53 -95 -13 -22 -29 -50 -34 -62 -5 -13 -14 -23 -19 -23 -5 0 -12
-13 -16 -30 -4 -16 -11 -33 -17 -36 -5 -4 -16 -21 -24 -38 -8 -17 -28 -55 -45
-85 -16 -29 -28 -60 -25 -68 6 -14 65 -43 89 -43 13 0 57 76 57 100 0 6 6 24
14 38 8 15 19 38 25 52 10 24 18 37 41 78 6 9 16 29 23 45 6 15 14 27 18 27 4
0 13 15 20 33 7 17 19 38 26 45 7 7 13 20 13 27 0 7 6 20 13 27 18 18 117 181
151 248 15 30 36 62 46 70 18 15 66 94 95 158 9 17 20 32 25 32 6 0 10 6 10
13 0 8 9 22 20 32 11 10 20 23 20 30 0 7 9 20 20 30 11 10 20 22 20 27 0 12
42 71 58 81 6 4 12 15 12 23 0 8 6 17 14 20 8 3 17 16 20 30 4 13 14 33 24 43
9 10 24 28 32 41 8 12 25 35 38 50 12 15 22 33 22 38 0 6 6 15 13 19 14 9 57
69 57 80 0 4 18 28 40 53 54 61 54 62 76 95 18 28 51 69 84 105 8 8 21 28 29
42 7 15 36 50 62 78 27 29 49 56 49 61 0 5 4 9 8 9 5 0 26 25 47 55 20 30 41
55 46 55 5 0 9 7 9 16 0 9 9 18 20 21 11 3 20 12 20 19 0 8 4 14 9 14 5 0 28
26 52 57 23 32 61 77 83 100 23 23 57 61 76 84 34 40 235 250 285 299 14 14
77 76 140 138 63 61 117 112 120 112 3 0 35 30 72 68 38 37 88 83 113 102 25
19 65 55 90 80 25 25 63 59 85 75 22 17 46 35 52 40 7 6 24 19 38 30 15 11 41
34 59 50 18 17 54 46 82 65 63 44 72 51 92 73 9 9 22 17 30 17 7 0 15 7 18 15
4 8 12 15 18 15 7 0 32 18 57 40 24 22 49 40 55 40 7 0 14 7 18 15 3 8 10 15
16 15 11 0 136 85 161 109 9 9 35 27 58 41 23 14 91 57 151 95 186 120 228
145 239 145 6 0 11 5 11 11 0 5 14 15 30 20 17 6 30 15 30 19 0 5 9 12 21 15
12 4 29 14 38 23 10 10 28 24 41 32 12 8 33 23 45 33 13 9 28 17 33 17 8 0 58
36 137 97 6 5 44 31 85 58 83 56 93 63 120 87 10 9 27 19 39 23 12 3 21 10 21
15 0 5 8 11 18 14 9 4 39 26 65 51 26 25 52 45 57 45 6 0 10 7 10 15 0 21 -8
19 -70 -15z"/>
<path d="M7866 3859 c-27 -4 -61 -12 -75 -18 -14 -5 -57 -12 -96 -15 -38 -3
-99 -12 -135 -20 -63 -15 -124 -26 -260 -47 -36 -6 -85 -16 -110 -24 -25 -7
-66 -16 -93 -19 -26 -3 -61 -12 -77 -21 -16 -8 -44 -15 -62 -15 -18 0 -46 -7
-62 -15 -16 -8 -47 -18 -70 -22 -22 -3 -50 -12 -61 -18 -11 -7 -42 -15 -69
-19 -27 -3 -54 -10 -61 -16 -6 -5 -35 -14 -63 -21 -29 -6 -52 -15 -52 -19 0
-5 -20 -12 -45 -15 -24 -4 -50 -13 -56 -21 -6 -8 -21 -14 -33 -14 -11 0 -50
-10 -86 -21 -61 -20 -94 -34 -180 -72 -81 -36 -133 -57 -144 -57 -6 -1 -29 -9
-51 -20 -22 -11 -45 -19 -51 -20 -9 0 -90 -39 -139 -68 -27 -16 -112 -52 -122
-52 -7 0 -225 -104 -253 -121 -8 -5 -26 -14 -40 -20 -14 -6 -38 -17 -55 -25
-16 -7 -42 -16 -57 -20 -15 -3 -29 -12 -32 -20 -3 -8 -13 -14 -22 -14 -9 0
-28 -7 -42 -15 -29 -16 -95 -40 -154 -57 -21 -6 -38 -14 -38 -18 0 -4 -18 -12
-40 -19 -22 -6 -40 -16 -40 -21 0 -5 -17 -12 -37 -16 -21 -4 -47 -13 -58 -20
-11 -8 -29 -14 -40 -14 -11 -1 -38 -9 -60 -20 -22 -11 -52 -19 -67 -20 -15 0
-33 -6 -41 -14 -8 -8 -32 -18 -53 -22 -21 -3 -46 -12 -54 -19 -14 -12 -38 -19
-140 -46 -25 -6 -73 -20 -108 -30 -34 -10 -74 -19 -88 -19 -14 0 -38 -6 -52
-14 -15 -8 -72 -24 -127 -36 -55 -11 -118 -26 -140 -31 -22 -5 -85 -16 -140
-24 -55 -7 -113 -18 -130 -24 -16 -6 -82 -17 -145 -25 -63 -8 -149 -20 -190
-26 -41 -5 -173 -17 -293 -25 -120 -8 -226 -19 -237 -25 -10 -5 -18 -19 -17
-30 3 -38 41 -42 248 -30 106 6 195 13 198 15 4 2 60 8 126 14 311 29 732 100
810 137 17 8 53 17 80 20 28 3 66 11 85 19 19 7 58 17 85 23 94 20 168 41 174
50 3 5 24 12 46 16 22 4 54 13 70 21 41 18 158 55 177 55 9 0 21 6 27 14 7 8
30 17 51 21 21 4 44 13 51 21 6 8 19 14 28 14 9 0 33 9 54 20 20 11 46 20 56
20 11 0 26 6 34 14 8 8 30 18 50 21 20 4 41 13 48 21 6 8 19 14 29 14 9 0 29
9 43 20 14 11 31 20 39 20 8 0 23 7 34 15 10 8 26 15 34 15 8 0 36 11 62 25
26 14 54 25 63 25 8 0 15 4 15 9 0 5 10 13 23 16 29 9 131 57 137 66 3 3 23
12 45 19 22 7 69 26 105 43 111 50 143 64 205 87 33 12 67 26 75 31 8 5 26 14
40 20 14 6 43 20 66 30 23 11 48 19 55 19 8 0 23 6 34 14 11 7 35 17 53 21 18
4 45 13 60 21 15 8 36 14 47 14 11 0 30 6 41 14 11 8 36 17 56 21 20 4 39 13
41 20 3 7 28 15 56 19 28 4 51 11 51 16 0 5 21 12 48 15 26 4 56 13 67 20 11
6 43 15 70 19 28 4 57 14 65 21 8 7 38 16 65 20 28 4 55 11 61 16 6 5 33 12
60 15 27 4 60 12 74 19 14 7 52 16 85 20 33 4 71 12 85 18 14 5 59 15 100 22
41 7 93 18 115 24 50 12 154 29 265 42 121 14 283 39 293 46 11 7 -1 55 -16
65 -15 10 -137 8 -201 -3z"/>
<path d="M2610 3094 c-18 -47 -9 -84 21 -84 11 0 36 -9 56 -20 21 -11 44 -20
51 -20 8 0 27 -8 43 -17 28 -16 29 -16 54 7 15 14 25 35 25 51 0 22 -8 31 -43
48 -24 12 -48 21 -53 21 -5 1 -27 9 -49 20 -58 28 -93 26 -105 -6z"/>
<path d="M2555 2917 c-5 -7 -22 -30 -36 -52 -14 -22 -43 -66 -64 -97 -42 -63
-44 -84 -25 -187 6 -31 12 -90 13 -131 1 -51 6 -75 14 -75 7 0 40 25 74 55 34
30 84 67 113 81 37 19 53 34 60 55 4 16 17 52 27 79 10 28 19 64 19 80 0 17 7
43 15 59 25 47 19 60 -38 89 -30 15 -61 27 -69 27 -8 0 -23 7 -34 15 -23 17
-55 19 -69 2z m62 -259 c29 -27 29 -37 -1 -65 -51 -49 -112 -6 -87 60 13 34
55 36 88 5z"/>
</g>
</svg>
